<?xml version="1.0" standalone="no"?>
<!DOCTYPE svg PUBLIC "-//W3C//DTD SVG 20010904//EN"
 "http://www.w3.org/TR/2001/REC-SVG-20010904/DTD/svg10.dtd">
<svg version="1.0" xmlns="http://www.w3.org/2000/svg"
 width="16.000000pt" height="16.000000pt" viewBox="0 0 16.000000 16.000000"
 preserveAspectRatio="xMidYMid meet">
<metadata>
Created by potrace 1.11, written by Peter Selinger 2001-2013
</metadata>
<g transform="translate(0.000000,16.000000) scale(0.000642,-0.000642)"
fill="#000000" stroke="none">
<path d="M9350 23265 l0 -635 1133 0 1133 0 4409 -10742 c2425 -5909 4421
-10771 4437 -10806 l27 -62 1568 2 1568 3 0 625 0 625 -1150 3 -1150 3 -4434
10809 -4434 10810 -1554 0 -1553 0 0 -635z"/>
<path d="M7080 22133 c-179 -96 -328 -178 -333 -182 -4 -4 57 -126 134 -272
405 -756 3143 -5855 3148 -5861 10 -11 666 348 665 364 -1 13 -3274 6111
-3287 6124 -1 1 -148 -76 -327 -173z"/>
<path d="M8377 5289 c-885 -1661 -1607 -3023 -1604 -3025 8 -8 659 -354 666
-354 7 0 3202 5992 3216 6031 5 12 -64 53 -321 190 -180 96 -332 175 -338 177
-6 1 -735 -1357 -1619 -3019z"/>
</g>
</svg>
